<svg width="44" height="44" viewBox="0 0 44 44" fill="none" xmlns="http://www.w3.org/2000/svg">
  <path d="M16.4664 22.763H19.0318V33.3246C19.0318 33.5331 19.2008 33.7021 19.4093 33.7021H23.7592C23.9677 33.7021 24.1367 33.5331 24.1367 33.3246V22.8127H27.0859C27.2777 22.8127 27.439 22.6688 27.4609 22.4783L27.9088 18.5901C27.9212 18.4831 27.8873 18.3759 27.8157 18.2957C27.744 18.2154 27.6415 18.1694 27.5339 18.1694H24.1368V15.732C24.1368 14.9973 24.5324 14.6247 25.3128 14.6247C25.424 14.6247 27.5339 14.6247 27.5339 14.6247C27.7424 14.6247 27.9114 14.4557 27.9114 14.2472V10.6781C27.9114 10.4696 27.7424 10.3006 27.5339 10.3006H24.4729C24.4513 10.2996 24.4033 10.2979 24.3327 10.2979C23.8015 10.2979 21.9554 10.4021 20.4971 11.7437C18.8813 13.2304 19.1059 15.0105 19.1596 15.3191V18.1693H16.4664C16.2578 18.1693 16.0889 18.3383 16.0889 18.5468V22.3854C16.0889 22.5939 16.2578 22.763 16.4664 22.763Z" />
</svg>
